<svg xmlns="http://www.w3.org/2000/svg" xmlns:xlink="http://www.w3.org/1999/xlink" width="500" zoomAndPan="magnify" viewBox="0 0 375 374.999991" height="500" preserveAspectRatio="xMidYMid meet" version="1.0"><defs><g/><clipPath id="id1"><path d="M 182 255 L 303 255 L 303 322.5 L 182 322.5 Z M 182 255 " clip-rule="nonzero"/></clipPath><clipPath id="id2"><path d="M 48 187.5 L 326.957031 187.5 L 326.957031 297 L 48 297 Z M 48 187.5 " clip-rule="nonzero"/></clipPath></defs><path fill="#055772" d="M 96.476562 307.375 C 173.351562 324.578125 227.824219 223.101562 296.191406 249.933594 C 272.25 244.671875 240.75 258.351562 201.6875 290.964844 C 159.898438 321.261719 124.824219 326.734375 96.476562 307.375 Z M 96.476562 307.375 " fill-opacity="1" fill-rule="evenodd"/><g clip-path="url(#id1)"><path fill="#055772" d="M 302.53125 263.085938 C 261.664062 232.011719 223.355469 308.640625 182.84375 318.179688 C 223.449219 342.847656 255.074219 253.375 302.53125 263.085938 Z M 302.53125 263.085938 " fill-opacity="1" fill-rule="evenodd"/></g><g clip-path="url(#id2)"><path fill="#09abd7" d="M 326.886719 255.402344 C 250.804688 152.976562 130.164062 297.164062 95.921875 250.125 C 67.957031 211.714844 138.195312 189.609375 160.230469 226.648438 C 122.675781 144.078125 11.53125 207.875 60.101562 273.371094 C 90.542969 314.417969 142.203125 292.84375 184.769531 265.496094 C 226.851562 238.464844 277.398438 215.167969 326.886719 255.398438 Z M 326.886719 255.402344 " fill-opacity="1" fill-rule="evenodd"/></g><g fill="#001f3d" fill-opacity="1"><g transform="translate(37.513908, 160.978694)"><g><path d="M 8.84375 0 L 8.84375 -95.53125 L 13.921875 -95.53125 L 46.34375 -14.859375 L 46.34375 -95.53125 L 52.015625 -95.53125 L 52.015625 0 L 46.9375 0 L 14.5 -80.78125 L 14.5 0 Z M 8.84375 0 "/></g></g></g><g fill="#001f3d" fill-opacity="1"><g transform="translate(98.249277, 160.978694)"><g><path d="M 22.53125 1.0625 C 18.039062 1.0625 14.554688 0.0820312 12.078125 -1.875 C 9.609375 -3.84375 7.878906 -6.753906 6.890625 -10.609375 C 5.910156 -14.460938 5.421875 -19.222656 5.421875 -24.890625 L 5.421875 -43.28125 C 5.421875 -48.945312 5.910156 -53.703125 6.890625 -57.546875 C 7.878906 -61.398438 9.609375 -64.3125 12.078125 -66.28125 C 14.554688 -68.25 18.039062 -69.234375 22.53125 -69.234375 C 27.082031 -69.234375 30.597656 -68.25 33.078125 -66.28125 C 35.554688 -64.3125 37.285156 -61.421875 38.265625 -57.609375 C 39.253906 -53.796875 39.75 -49.019531 39.75 -43.28125 L 39.75 -24.890625 C 39.75 -19.222656 39.253906 -14.460938 38.265625 -10.609375 C 37.285156 -6.753906 35.554688 -3.84375 33.078125 -1.875 C 30.597656 0.0820312 27.082031 1.0625 22.53125 1.0625 Z M 22.53125 -3.65625 C 25.832031 -3.65625 28.269531 -4.5 29.84375 -6.1875 C 31.414062 -7.882812 32.414062 -10.300781 32.84375 -13.4375 C 33.28125 -16.582031 33.5 -20.320312 33.5 -24.65625 L 33.5 -43.515625 C 33.5 -47.921875 33.28125 -51.675781 32.84375 -54.78125 C 32.414062 -57.882812 31.414062 -60.28125 29.84375 -61.96875 C 28.269531 -63.664062 25.832031 -64.515625 22.53125 -64.515625 C 19.226562 -64.515625 16.804688 -63.664062 15.265625 -61.96875 C 13.734375 -60.28125 12.75 -57.882812 12.3125 -54.78125 C 11.882812 -51.675781 11.671875 -47.921875 11.671875 -43.515625 L 11.671875 -24.65625 C 11.671875 -20.320312 11.882812 -16.582031 12.3125 -13.4375 C 12.75 -10.300781 13.734375 -7.882812 15.265625 -6.1875 C 16.804688 -4.5 19.226562 -3.65625 22.53125 -3.65625 Z M 22.53125 -3.65625 "/></g></g></g><g fill="#001f3d" fill-opacity="1"><g transform="translate(143.417513, 160.978694)"><g><path d="M 8.84375 0 L 8.84375 -95.53125 L 31.25 -95.53125 C 36.988281 -95.53125 41.46875 -94.445312 44.6875 -92.28125 C 47.914062 -90.125 50.175781 -87.195312 51.46875 -83.5 C 52.769531 -79.800781 53.421875 -75.59375 53.421875 -70.875 C 53.421875 -66.632812 52.769531 -62.585938 51.46875 -58.734375 C 50.175781 -54.878906 47.914062 -51.734375 44.6875 -49.296875 C 41.46875 -46.859375 37.03125 -45.640625 31.375 -45.640625 L 15.21875 -45.640625 L 15.21875 0 Z M 15.21875 -50.59375 L 29.953125 -50.59375 C 33.804688 -50.59375 36.972656 -51.257812 39.453125 -52.59375 C 41.929688 -53.9375 43.78125 -56.082031 45 -59.03125 C 46.21875 -61.976562 46.828125 -65.925781 46.828125 -70.875 C 46.828125 -75.988281 46.273438 -79.976562 45.171875 -82.84375 C 44.066406 -85.71875 42.296875 -87.722656 39.859375 -88.859375 C 37.421875 -90.003906 34.160156 -90.578125 30.078125 -90.578125 L 15.21875 -90.578125 Z M 15.21875 -50.59375 "/></g></g></g><g fill="#001f3d" fill-opacity="1"><g transform="translate(200.614893, 160.978694)"><g><path d="M 7.90625 0 L 7.90625 -95.53125 L 14.15625 -95.53125 L 14.15625 0 Z M 7.90625 0 "/></g></g></g><g fill="#001f3d" fill-opacity="1"><g transform="translate(222.550388, 160.978694)"><g><path d="M 18.15625 1.0625 C 15.40625 1.0625 13.007812 0.429688 10.96875 -0.828125 C 8.925781 -2.085938 7.332031 -3.835938 6.1875 -6.078125 C 5.050781 -8.316406 4.484375 -10.890625 4.484375 -13.796875 C 4.484375 -16.703125 4.851562 -19.238281 5.59375 -21.40625 C 6.34375 -23.570312 7.703125 -25.597656 9.671875 -27.484375 C 11.640625 -29.367188 14.453125 -31.351562 18.109375 -33.4375 C 21.765625 -35.519531 26.5 -37.9375 32.3125 -40.6875 L 32.3125 -45.53125 C 32.3125 -50.476562 32.015625 -54.328125 31.421875 -57.078125 C 30.835938 -59.828125 29.859375 -61.753906 28.484375 -62.859375 C 27.109375 -63.960938 25.238281 -64.515625 22.875 -64.515625 C 21.070312 -64.515625 19.34375 -64.195312 17.6875 -63.5625 C 16.039062 -62.9375 14.6875 -61.695312 13.625 -59.84375 C 12.5625 -58 12.03125 -55.269531 12.03125 -51.65625 L 12.03125 -49.890625 L 5.890625 -49.890625 C 5.890625 -56.410156 7.207031 -61.265625 9.84375 -64.453125 C 12.476562 -67.640625 16.898438 -69.234375 23.109375 -69.234375 C 28.847656 -69.234375 32.859375 -67.421875 35.140625 -63.796875 C 37.421875 -60.179688 38.5625 -54.328125 38.5625 -46.234375 L 38.5625 -11.90625 C 38.5625 -11.28125 38.582031 -10.082031 38.625 -8.3125 C 38.664062 -6.539062 38.703125 -4.828125 38.734375 -3.171875 C 38.773438 -1.523438 38.835938 -0.46875 38.921875 0 L 33.5 0 C 33.34375 -1.65625 33.144531 -3.382812 32.90625 -5.1875 C 32.664062 -7 32.507812 -8.296875 32.4375 -9.078125 C 31.414062 -6.242188 29.644531 -3.84375 27.125 -1.875 C 24.613281 0.0820312 21.625 1.0625 18.15625 1.0625 Z M 19.703125 -4.125 C 21.660156 -4.125 23.425781 -4.578125 25 -5.484375 C 26.570312 -6.390625 27.988281 -7.566406 29.25 -9.015625 C 30.507812 -10.472656 31.53125 -12.03125 32.3125 -13.6875 L 32.3125 -36.09375 C 28.144531 -33.882812 24.664062 -31.992188 21.875 -30.421875 C 19.082031 -28.847656 16.878906 -27.351562 15.265625 -25.9375 C 13.660156 -24.53125 12.503906 -22.941406 11.796875 -21.171875 C 11.085938 -19.398438 10.734375 -17.257812 10.734375 -14.75 C 10.734375 -10.65625 11.675781 -7.859375 13.5625 -6.359375 C 15.445312 -4.867188 17.492188 -4.125 19.703125 -4.125 Z M 19.703125 -4.125 "/></g></g></g><g fill="#001f3d" fill-opacity="1"><g transform="translate(267.246882, 160.978694)"><g><path d="M 22.171875 1.0625 C 16.828125 1.0625 12.582031 -0.6875 9.4375 -4.1875 C 6.289062 -7.6875 4.484375 -12.421875 4.015625 -18.390625 L 9.3125 -19.9375 C 9.707031 -14.195312 11.023438 -10.046875 13.265625 -7.484375 C 15.503906 -4.929688 18.550781 -3.65625 22.40625 -3.65625 C 25.863281 -3.65625 28.535156 -4.617188 30.421875 -6.546875 C 32.316406 -8.472656 33.265625 -11.207031 33.265625 -14.75 C 33.265625 -17.175781 32.457031 -19.707031 30.84375 -22.34375 C 29.226562 -24.976562 26.691406 -27.75 23.234375 -30.65625 L 15.328125 -37.390625 C 11.953125 -40.296875 9.476562 -43.066406 7.90625 -45.703125 C 6.332031 -48.335938 5.546875 -51.34375 5.546875 -54.71875 C 5.546875 -57.863281 6.191406 -60.5 7.484375 -62.625 C 8.785156 -64.75 10.59375 -66.378906 12.90625 -67.515625 C 15.226562 -68.660156 17.925781 -69.234375 21 -69.234375 C 26.101562 -69.234375 29.910156 -67.617188 32.421875 -64.390625 C 34.941406 -61.171875 36.28125 -56.847656 36.4375 -51.421875 L 31.84375 -50 C 31.757812 -53.539062 31.265625 -56.375 30.359375 -58.5 C 29.460938 -60.625 28.242188 -62.15625 26.703125 -63.09375 C 25.171875 -64.039062 23.382812 -64.515625 21.34375 -64.515625 C 18.351562 -64.515625 15.9375 -63.742188 14.09375 -62.203125 C 12.25 -60.671875 11.328125 -58.414062 11.328125 -55.4375 C 11.328125 -52.914062 11.816406 -50.726562 12.796875 -48.875 C 13.773438 -47.03125 15.601562 -44.890625 18.28125 -42.453125 L 26.421875 -35.265625 C 28.460938 -33.535156 30.425781 -31.6875 32.3125 -29.71875 C 34.195312 -27.75 35.75 -25.566406 36.96875 -23.171875 C 38.1875 -20.773438 38.796875 -17.925781 38.796875 -14.625 C 38.796875 -11.320312 38.109375 -8.507812 36.734375 -6.1875 C 35.359375 -3.875 33.429688 -2.085938 30.953125 -0.828125 C 28.484375 0.429688 25.554688 1.0625 22.171875 1.0625 Z M 22.171875 1.0625 "/></g></g></g><g fill="#001f3d" fill-opacity="1"><g transform="translate(309.230958, 160.978694)"><g><path d="M 21.703125 0.703125 C 18.554688 0.703125 16.195312 0.078125 14.625 -1.171875 C 13.050781 -2.429688 12.023438 -4.125 11.546875 -6.25 C 11.078125 -8.375 10.84375 -10.769531 10.84375 -13.4375 L 10.84375 -64.046875 L 1.890625 -64.046875 L 1.890625 -68.171875 L 10.84375 -68.171875 L 10.84375 -89.984375 L 17.09375 -89.984375 L 17.09375 -68.171875 L 28.65625 -68.171875 L 28.65625 -64.046875 L 17.09375 -64.046875 L 17.09375 -14.265625 C 17.09375 -10.578125 17.445312 -7.984375 18.15625 -6.484375 C 18.863281 -4.992188 20.476562 -4.25 23 -4.25 C 23.78125 -4.25 24.625 -4.304688 25.53125 -4.421875 C 26.4375 -4.535156 27.28125 -4.671875 28.0625 -4.828125 L 28.0625 0 C 27.125 0.238281 26.0625 0.414062 24.875 0.53125 C 23.695312 0.644531 22.640625 0.703125 21.703125 0.703125 Z M 21.703125 0.703125 "/></g></g></g></svg>